ffmpeg version 3.4.8-0ubuntu0.2 Copyright (c) 2000-2020 the FFmpeg developers
  built with gcc 7 (Ubuntu 7.5.0-3ubuntu1~18.04)
  configuration: --prefix=/usr --extra-version=0ubuntu0.2 --toolchain=hardened --libdir=/usr/lib/x86_64-linux-gnu --incdir=/usr/include/x86_64-linux-gnu --enable-gpl --disable-stripping --enable-avresample --enable-avisynth --enable-gnutls --enable-ladspa --enable-libass --enable-libbluray --enable-libbs2b --enable-libcaca --enable-libcdio --enable-libflite --enable-libfontconfig --enable-libfreetype --enable-libfribidi --enable-libgme --enable-libgsm --enable-libmp3lame --enable-libmysofa --enable-libopenjpeg --enable-libopenmpt --enable-libopus --enable-libpulse --enable-librubberband --enable-librsvg --enable-libshine --enable-libsnappy --enable-libsoxr --enable-libspeex --enable-libssh --enable-libtheora --enable-libtwolame --enable-libvorbis --enable-libvpx --enable-libwavpack --enable-libwebp --enable-libx265 --enable-libxml2 --enable-libxvid --enable-libzmq --enable-libzvbi --enable-omx --enable-openal --enable-opengl --enable-sdl2 --enable-libdc1394 --enable-libdrm --enable-libiec61883 --enable-chromaprint --enable-frei0r --enable-libopencv --enable-libx264 --enable-shared
  libavutil      55. 78.100 / 55. 78.100
  libavcodec     57.107.100 / 57.107.100
  libavformat    57. 83.100 / 57. 83.100
  libavdevice    57. 10.100 / 57. 10.100
  libavfilter     6.107.100 /  6.107.100
  libavresample   3.  7.  0 /  3.  7.  0
  libswscale      4.  8.100 /  4.  8.100
  libswresample   2.  9.100 /  2.  9.100
  libpostproc    54.  7.100 / 54.  7.100
[rawvideo @ 0x55bfcb79ca20] Estimating duration from bitrate, this may be inaccurate
Input #0, rawvideo, from '../../SVC-Encoder-20220109T061506Z-001/SVC-Encoder/Dataset/RollerCoaster/ERP_8x8/tile_yuv/Tile_35_480x240.yuv':
  Duration: 00:00:10.00, start: 0.000000, bitrate: 41472 kb/s
    Stream #0:0: Video: rawvideo (I420 / 0x30323449), yuv420p, 480x240, 41472 kb/s, 30 tbr, 30 tbn, 30 tbc
Stream mapping:
  Stream #0:0 -> #0:0 (rawvideo (native) -> h264 (libx264))
Press [q] to stop, [?] for help
[libx264 @ 0x55bfcb7a9c60] using cpu capabilities: MMX2 SSE2Fast LZCNT SSSE3 SSE4.2 AVX
[libx264 @ 0x55bfcb7a9c60] profile High, level 2.1
Output #0, rawvideo, to 'RollerCoaster_Tile_35_480x240_x264_QP_28.h264':
  Metadata:
    encoder         : Lavf57.83.100
    Stream #0:0: Video: h264 (libx264), yuv420p, 480x240, q=-1--1, 30 fps, 30 tbn, 30 tbc
    Metadata:
      encoder         : Lavc57.107.100 libx264
    Side data:
      cpb: bitrate max/min/avg: 0/0/0 buffer size: 0 vbv_delay: -1
frame=  208 fps=0.0 q=34.0 PSNR=Y:nan U:nan V:nan *:nan size=      87kB time=00:00:05.50 bitrate= 128.9kbits/s speed=  11x    frame=  300 fps=0.0 q=34.0 LPSNR=Y:inf U:inf V:inf *:inf size=     146kB time=00:00:09.93 bitrate= 120.7kbits/s speed=13.2x    
video:146kB audio:0kB subtitle:0kB other streams:0kB global headers:0kB muxing overhead: 0.000000%
[libx264 @ 0x55bfcb7a9c60] frame I:2     Avg QP:26.37  size:  7370  PSNR Mean Y:44.64 U:47.80 V:49.85 Avg:45.62 Global:45.62
[libx264 @ 0x55bfcb7a9c60] frame P:76    Avg QP:27.75  size:  1243  PSNR Mean Y:41.89 U:47.62 V:49.27 Avg:43.19 Global:43.14
[libx264 @ 0x55bfcb7a9c60] frame B:222   Avg QP:33.44  size:   183  PSNR Mean Y:41.31 U:47.37 V:49.15 Avg:42.64 Global:42.61
[libx264 @ 0x55bfcb7a9c60] consecutive B-frames:  1.3%  0.0%  0.0% 98.7%
[libx264 @ 0x55bfcb7a9c60] mb I  I16..4: 59.1% 23.3% 17.6%
[libx264 @ 0x55bfcb7a9c60] mb P  I16..4:  1.4%  0.6%  0.0%  P16..4: 21.6% 11.4%  5.1%  0.0%  0.0%    skip:59.9%
[libx264 @ 0x55bfcb7a9c60] mb B  I16..4:  0.0%  0.0%  0.0%  B16..8: 23.3%  1.8%  0.1%  direct: 0.1%  skip:74.7%  L0:44.0% L1:52.3% BI: 3.7%
[libx264 @ 0x55bfcb7a9c60] 8x8 transform intra:26.0% inter:64.1%
[libx264 @ 0x55bfcb7a9c60] coded y,uvDC,uvAC intra: 21.8% 37.2% 14.3% inter: 4.2% 2.8% 0.0%
[libx264 @ 0x55bfcb7a9c60] i16 v,h,dc,p: 30% 49% 14%  7%
[libx264 @ 0x55bfcb7a9c60] i8 v,h,dc,ddl,ddr,vr,hd,vl,hu: 13% 16% 48%  1%  2%  2%  8%  7%  3%
[libx264 @ 0x55bfcb7a9c60] i4 v,h,dc,ddl,ddr,vr,hd,vl,hu: 18% 24% 19%  4%  3%  3%  8% 19%  2%
[libx264 @ 0x55bfcb7a9c60] i8c dc,h,v,p: 61% 21% 13%  6%
[libx264 @ 0x55bfcb7a9c60] Weighted P-Frames: Y:0.0% UV:0.0%
[libx264 @ 0x55bfcb7a9c60] ref P L0: 60.7% 21.6% 14.9%  2.8%
[libx264 @ 0x55bfcb7a9c60] ref B L0: 88.2% 10.9%  1.0%
[libx264 @ 0x55bfcb7a9c60] ref B L1: 91.6%  8.4%
[libx264 @ 0x55bfcb7a9c60] PSNR Mean Y:41.479 U:47.437 V:49.187 Avg:42.799 Global:42.753 kb/s:119.92
